<svg xmlns="http://www.w3.org/2000/svg" id="Ebene_1" data-name="Ebene 1" viewBox="0 0 200 200"><defs><style>.cls-1{fill:#fff}</style></defs><path d="M162.94 70.3a87.47 87.47 0 0 0-6.75-23c-.23-.5-.48-1-.73-1.47l-.1-.21-.13-.23c-.53-1-1.1-2-1.67-2.95a28.73 28.73 0 0 0-3.08-4.08l-.32-.39c-.2-.34-.57-.53-.81-.84s-.71-.6-1-1l-.27-.19-.08-.07h-.06c-.6-.44-1.2-.89-1.84-1.29l-.33-.17-.11-.09-.65-.28a11.06 11.06 0 0 0-3-.92 9.09 9.09 0 0 0-1.61-.13h-.69a.19.19 0 0 0-.1 0l-.45.05a12 12 0 0 0-5.48 2.3 22.68 22.68 0 0 0-4.31 4.29c-.57.74-1.09 1.49-1.59 2.28l-.06.09-.09.15c-.29.47-.57.95-.84 1.43-3.78 6.31-6.07 14-7.92 22A150.74 150.74 0 0 0 116 92.21a143.91 143.91 0 0 0 2.05 27.22 87.47 87.47 0 0 0 6.75 23c.23.5.48 1 .73 1.47l.1.21.13.23c.53 1 1.1 2 1.67 2.95a28.72 28.72 0 0 0 3.08 4.08l.32.39c.2.34.57.53.81.84s.71.6 1 1l.27.19.08.07h.06c.6.44 1.2.89 1.84 1.29l.33.17.11.09.65.28a11.06 11.06 0 0 0 3 .92 9.09 9.09 0 0 0 1.61.13h.69a.18.18 0 0 0 .1 0l.45-.05a12 12 0 0 0 5.48-2.3 22.68 22.68 0 0 0 4.29-4.39q.84-1.09 1.58-2.27l.06-.09.09-.15c.29-.47.57-.95.84-1.43 3.78-6.31 6.07-14 7.92-22A150.74 150.74 0 0 0 165 97.51a143.92 143.92 0 0 0-2.06-27.21Zm-8.12 46.7c-1.31 5.78-2.93 11.28-5.6 15.81-.19.35-.39.69-.6 1l-.06.11v.06q-.52.84-1.12 1.63a16.23 16.23 0 0 1-3.06 3.09 8.44 8.44 0 0 1-3.87 1.65h-.88a6.32 6.32 0 0 1-1.14-.1 7.73 7.73 0 0 1-2.09-.66l-.46-.2-.08-.07-.24-.12c-.45-.29-.87-.61-1.3-.93l-.06-.05-.19-.14c-.19-.27-.5-.43-.69-.7s-.43-.36-.57-.6l-.23-.28a20.61 20.61 0 0 1-2.17-2.93c-.41-.69-.8-1.4-1.18-2.12l-.09-.17-.07-.15c-.18-.35-.35-.7-.52-1.05a63.62 63.62 0 0 1-4.77-16.51 105.06 105.06 0 0 1-1.45-19.55 110 110 0 0 1 2-19c1.31-5.78 2.93-11.28 5.6-15.81.19-.35.39-.69.6-1l.06-.11v-.06q.52-.84 1.12-1.63a16.17 16.17 0 0 1 3-3.08 8.44 8.44 0 0 1 3.87-1.65h.88a6.32 6.32 0 0 1 1.14.1 7.73 7.73 0 0 1 2.09.66l.46.2.08.07.24.12c.45.29.87.61 1.3.93l.21.16c.19.27.5.43.69.7s.43.36.57.6l.23.28a20.61 20.61 0 0 1 2.17 2.93c.41.69.8 1.4 1.18 2.12l.09.17.07.15c.18.35.35.7.52 1.05a63.62 63.62 0 0 1 4.77 16.51A105.06 105.06 0 0 1 156.82 98a110 110 0 0 1-2 19Z" class="cls-1"/><path id="svg_4" d="M138.12 83.59a18.24 18.24 0 0 1 2.57 3.18c2.33 4.54 2.52 11.38 0 15.9a8.26 8.26 0 0 1-1.1 1.68 8 8 0 0 1-3.85 3.09 6.82 6.82 0 0 1-2.2.47c-4.86-3.2-5.82-23.76 0-26.09a6.88 6.88 0 0 1 4.58 1.77Z" class="cls-1" data-name="svg 4"/><path d="M73.57 61.22a1.39 1.39 0 0 0-1.08.94 94.51 94.51 0 0 0-4 27.7 91.75 91.75 0 0 0 6.44 34.46 1.38 1.38 0 0 0 1 .82c20.43 3.9 31.08 13.59 40.7 19.45a1.32 1.32 0 0 0 1.88-1.7c-3.33-7.05-9-19.22-9-48.46 0-28.1 5.66-41 8.85-47.58a1.32 1.32 0 0 0-1.84-1.73c-10.06 5.78-21.62 12.09-42.95 16.1ZM63.09 89.86a102.05 102.05 0 0 1 3-25 1.81 1.81 0 0 0-2-2.26 158 158 0 0 1-17.41.94 1.7 1.7 0 0 0-.63.11C44.3 64.43 35 69.2 35 89.67c0 19.67 8.58 30 10.89 32.42a1.82 1.82 0 0 0 1.32.56 175.75 175.75 0 0 1 18.9 1 1.81 1.81 0 0 0 1.89-2.37 100.11 100.11 0 0 1-4.91-31.42ZM47.51 128.55V167h23.92v-36.41a188.73 188.73 0 0 0-23.92-2.04Z" class="cls-1"/></svg>