<svg xmlns="http://www.w3.org/2000/svg" id="Ebene_1" data-name="Ebene 1" viewBox="0 0 200 200"><defs><style>.cls-1{fill:#fff}</style></defs><path d="M161.58 48h-7v10.82c0 6.32-5.66 11.45-12.61 11.45s-12.61-5.14-12.61-11.45V48H70.72v10.82c0 6.32-5.66 11.45-12.61 11.45s-12.62-5.13-12.62-11.45V48H29v115.86h142V48Zm2.14 108.2H36.29V85.1h127.42Z" class="cls-1"/><path d="M58.1 65.56c4.1 0 7.42-2.78 7.42-6.2v-21c0-3.42-3.32-6.2-7.42-6.2s-7.42 2.78-7.42 6.2v21c0 3.42 3.32 6.2 7.42 6.2ZM141.94 65.56c4.1 0 7.42-2.78 7.42-6.2v-21c0-3.42-3.32-6.2-7.42-6.2s-7.42 2.78-7.42 6.2v21c0 3.42 3.32 6.2 7.42 6.2ZM42.32 90.89h25.03v26.82H42.32zM72.62 90.89h25.03v26.82H72.62zM102.92 90.89h25.03v26.82h-25.03zM133.22 90.89h25.03v26.82h-25.03zM42.32 123.52h25.03v26.82H42.32zM72.62 123.52h25.03v26.82H72.62zM102.92 123.52h25.03v26.82h-25.03z" class="cls-1"/></svg>