<svg xmlns="http://www.w3.org/2000/svg" id="Ebene_1" data-name="Ebene 1" viewBox="0 0 200 200"><defs><style>.cls-1{fill:#fff}</style></defs><path d="M100.32 83.66A24.35 24.35 0 1 0 124.68 108a24.35 24.35 0 0 0-24.36-24.34Zm20.56 18.91-4-1.77a19.27 19.27 0 0 0-2.09-8.36 21.32 21.32 0 0 1 6.09 10.13ZM101 109.75l10.16 4.53a28.59 28.59 0 0 1-5.54 7.74l-8.41-3.75Zm-1.35-3.52L89.5 101.7A28.56 28.56 0 0 1 95 94l8.41 3.75Zm2.44 1.08 3.79-8.52 8.41 3.75a28.6 28.6 0 0 1-2.05 9.29Zm12.12-7.72L107 96.37l2.64-5.93c2.62 1.76 4.19 5.1 4.57 9.16Zm-7-10.25-2.65 5.94-7.25-3.23c3.26-2.43 6.78-3.49 9.87-2.7Zm-5-2.52a19.15 19.15 0 0 0-7.61 4l-4-1.77a21.24 21.24 0 0 1 11.6-2.23Zm-14.34 3.95 4.59 2a31.21 31.21 0 0 0-5.4 7.8l-5.56-2.43a21.12 21.12 0 0 1 6.37-7.37Zm-8.1 22.64 4 1.77a19.06 19.06 0 0 0 2.08 8.35 21.23 21.23 0 0 1-6.08-10.12Zm4-1.13-4.59-2a21.18 21.18 0 0 1 1.23-9.66l5.59 2.43a31.12 31.12 0 0 0-2.22 9.23Zm4.63-8.15 10.16 4.53-3.8 8.51-8.41-3.75a28.75 28.75 0 0 1 2.06-9.28Zm-2 12.24 7.24 3.23-2.64 5.95c-2.61-1.77-4.18-5.1-4.57-9.17Zm7 10.25 2.64-5.94 7.25 3.23c-3.21 2.45-6.74 3.52-9.82 2.72Zm5 2.52a19.11 19.11 0 0 0 7.61-4l4 1.77a21.3 21.3 0 0 1-11.56 2.25Zm14.32-3.95-4.59-2.05a31.24 31.24 0 0 0 5.4-7.8l5.56 2.48a21.14 21.14 0 0 1-6.32 7.39Zm7.46-9.8-5.56-2.48a31.21 31.21 0 0 0 2.2-9.23l4.59 2a21.12 21.12 0 0 1-1.18 9.73Z" class="cls-1"/><path d="M123.27 144H32.59V72.17h135.46v40.12l3.29-3.25 3.31 3.28V46.14H26V151h104.21ZM57.1 54.37H108v9H57.1v-9Zm-8.86 0a4.5 4.5 0 1 1-4.5 4.5 4.5 4.5 0 0 1 4.5-4.5Zm-11.14 0a4.5 4.5 0 1 1-4.5 4.5 4.5 4.5 0 0 1 4.5-4.5ZM160.26 150.99h14.39v-14.72l-14.39 14.72z" class="cls-1"/><path d="m171.34 113.79-26.49 26.49-11.4-11.4-10.18 10.19 20.23 20.23a1.87 1.87 0 0 0 .92.5 1.9 1.9 0 0 0 1.8-.5l35.3-35.3Z" class="cls-1"/></svg>