<svg xmlns="http://www.w3.org/2000/svg" id="Ebene_1" data-name="Ebene 1" viewBox="0 0 200 200"><defs><style>.cls-1{fill:#fff}</style></defs><path d="M89.27 93.09a11.38 11.38 0 1 0 9.29 9.29 11.38 11.38 0 0 0-9.29-9.29Zm-5.57 17.65V97.86l11.16 6.44ZM107.73 95.09h38.8v6.34h-38.8zM107.73 108.62h38.8v6.35h-38.8zM77.96 124.32h68.58v6.34H77.96z" class="cls-1"/><path d="M96.48 59c-3.57 9.23-8.21 13.38-13.66 17.74a1.47 1.47 0 0 0-.25.28h80.21v65.86H59.5V82.6a22.89 22.89 0 0 1-5.66-.75v67h114.6V59Zm53.63 14.72a3.87 3.87 0 1 1 3-3 3.87 3.87 0 0 1-2.99 3.04Zm9.56 0a3.87 3.87 0 1 1 3-3 3.87 3.87 0 0 1-2.99 3.04Z" class="cls-1"/><path d="M77.78 76.3C85 72.32 95.71 60 93.33 55.64l-.07-.1-.07-.14-5-7.41-16.47 17.43-23.17 4.24 3.6 8.07.13.24c2.38 4.38 19.78 1.47 25.5-1.67Z" class="cls-1"/><path d="M101.72 29.13 56.9 37.35 25.55 70.7l44.53-8.14 31.64-33.43zM33.4 84.4V71.47l-2.65.28v12.44c-2.09.79-3.45 3.68-3.14 7 .35 3.72 5.25 13.24 5.67 10.7.86-5.16 1.38-10 1.84-11.4.88-2.69-.12-5.14-1.72-6.09Z" class="cls-1"/></svg>