<svg xmlns="http://www.w3.org/2000/svg" data-name="Ebene 1" viewBox="0 0 200 200"><path d="M95.55 67.44a28.41 28.41 0 0 1 18.23-6.63 50 50 0 0 1 14.66 2A34.26 34.26 0 0 1 140 69l.55.45h3.8V51.94l-1.06-.57a48.73 48.73 0 0 0-12.8-4.67 81 81 0 0 0-16.59-1.45 47.92 47.92 0 0 0-30.56 10.56c-8.42 6.7-14.14 15.86-17 27.25h-6.18l-4.5 12.07h8.87c0 .44 0 .89-.06 1.34 0 1.2-.07 2.42-.07 3.63 0 1 0 2.11.07 3.19v1h-4.31l-4.5 12.07h10.4c2.5 11.53 8.14 20.83 16.77 27.66a48.57 48.57 0 0 0 30.88 10.75A77.51 77.51 0 0 0 129 153.4a63.66 63.66 0 0 0 14.16-4.94l1.15-.54v-17.35h-3.79l-.57.51a29.92 29.92 0 0 1-10.03 5.92c-3.82 1.35-9.26 2-16.15 2-6.34 0-12.41-2.26-18-6.71a33.5 33.5 0 0 1-10.92-16h20.3l4.5-12.07h-27c0-.36 0-.73-.06-1.1 0-1-.07-2-.07-3.06s0-2.3.1-3.44q0-.78.1-1.53h30.43l4.5-12.07H85a33.39 33.39 0 0 1 10.55-15.58Z" style="fill:#fff"/></svg>