<svg xmlns="http://www.w3.org/2000/svg" id="Ebene_1" data-name="Ebene 1" viewBox="0 0 200 200"><defs><style>.cls-1{fill:#fff}</style></defs><path d="M152.68 138h-17.36l-9.92-15-10.19 15h-17l18.31-25.1-18-25h17.36l9.75 14.71 9.8-14.71h17.07l-18.09 24.7Z" class="cls-1"/><path d="M165.26 56.46H94.45L64.1 129.57 51.08 92.7H34.74v6.24h9.86l15.96 44.6h4.25L98.68 63.9h66.58v-7.44z" class="cls-1"/><path d="M65.44 144.61h-5.56L43.92 100H33.75v-8.37h18l12.4 35.14 29.66-71.38h72.44V65H99.31Zm-4.2-2.14h2.93L98 62.83h66.22v-5.3H95.1L64 132.37l-13.6-38.6H35.73v4.1h9.54Z" class="cls-1"/></svg>