<svg xmlns="http://www.w3.org/2000/svg" id="Ebene_1" data-name="Ebene 1" viewBox="0 0 200 200"><defs><style>.cls-1{fill:#fff}</style></defs><path d="M120.48 60.41C109.23 45.41 92.43 39.5 73 39.5c-30.1 0-54.5 18.62-54.5 41.59 0 12.76 7.54 24.17 19.4 31.79L29 136.41l23.16-16.9a67.82 67.82 0 0 0 13.54 2.79 40.34 40.34 0 0 1-2.2-13.1c0-25.52 25.23-46.29 56.98-48.79Z" class="cls-1"/><path d="M183.5 109.16c0-22.49-24.67-40.79-55-40.79s-55 18.3-55 40.79 24.67 40.79 55 40.79a72.32 72.32 0 0 0 17.39-2.1l25.56 18.65-9.47-25c13.08-7.5 21.52-19.19 21.52-32.34Z" class="cls-1"/></svg>