<svg xmlns="http://www.w3.org/2000/svg" id="Ebene_1" data-name="Ebene 1" viewBox="0 0 200 200"><defs><style>.cls-1{fill:#fff}</style></defs><path d="M94.23 154.43h7.37v7.56h-7.37zM108.89 120.84c-2.47-2.07-5.85-3.12-10.06-3.12a30.13 30.13 0 0 0-5.87.62 32 32 0 0 0-5.12 1.4l-.53.2V127h1.34l.2-.12a21.45 21.45 0 0 1 4.15-1.81 16.41 16.41 0 0 1 5.47-.91 8.46 8.46 0 0 1 5.06 1.4 4.65 4.65 0 0 1 1.81 4.06 7.12 7.12 0 0 1-.79 3.56 11.78 11.78 0 0 1-2.38 2.83 18.5 18.5 0 0 1-3.32 2.39l-3.94 2.27-.41.24v9.86h6.67v-6.67c1.4-.81 2.74-1.66 4-2.52a25.28 25.28 0 0 0 3.75-3.11 14.42 14.42 0 0 0 2.74-4 12.52 12.52 0 0 0 1.06-5.24 10.43 10.43 0 0 0-3.83-8.39ZM126.48 30.24v53h-53v-53h53m5.71-5.71H67.81v64.38h64.38V24.52Z" class="cls-1"/><path d="M113.87 39.64 95.35 58.16l-9.24-9.25-8.23 8.22 17.51 17.49 26.73-26.74-8.25-8.24zM126.48 113.93v53h-53v-53h53m5.71-5.71H67.81v64.38h64.38v-64.39Z" class="cls-1"/></svg>