<svg xmlns="http://www.w3.org/2000/svg" id="Ebene_1" data-name="Ebene 1" viewBox="0 0 200 200"><defs><style>.cls-1{fill:#fff}</style></defs><path d="M139.77 85.38a29.77 29.77 0 0 0-22.51-21.75l-3.69-.85C97.26 59 85 66.51 77.24 85.53s-11 48-11 48A30.31 30.31 0 0 0 89 169.87l3.69.85a30.31 30.31 0 0 0 29.7-9.72c1.42-1.64 4.24-5.25 4.82-8.22 5-30.7 4.45-34.25 9.86-51.84 1.3-4.17 3.67-11.5 2.7-15.56Zm-28-6.31L107 92.34c-1.49 4.47-4.48 7.54-8.49 6.21l-.91-.3c-4-1.33-4.87-9.59-3.38-14.06L96.6 78c1.49-4.47 7.12-10.57 11.13-9.24l.91.3c4 1.36 4.59 5.54 3.1 10.01ZM84.69 31.07c10.18 1.73 17-1.28 22.5-3.71 4.74-2.1 8.17-3.61 13.32-2.39 3.08.73 5.12 2.07 6.25 4.09 2.09 3.76.91 9.45.23 11.48l-5.89 19.09a35.31 35.31 0 0 1 10 5L137.49 44c.4-1.15 3.76-11.5-1-20.21-1.84-3.35-5.66-7.72-13.4-9.56-8.76-2.08-14.91.64-20.33 3-5 2.2-9.29 4.09-16.18 2.92C71.72 17.65 71.07.75 71 0H60c.18 9.46 5.58 27.82 24.69 31.07Z" class="cls-1"/></svg>